<svg width="22" height="22" viewBox="0 0 22 22" fill="none" xmlns="http://www.w3.org/2000/svg">
<path fill-rule="evenodd" clip-rule="evenodd" d="M9.49805 16.5806C5.63205 16.5806 2.49805 13.4466 2.49805 9.58057C2.49805 5.71457 5.63205 2.58057 9.49805 2.58057C13.364 2.58057 16.498 5.71457 16.498 9.58057C16.498 13.4466 13.364 16.5806 9.49805 16.5806ZM0.498047 9.58057C0.498047 4.61 4.52748 0.580566 9.49805 0.580566C14.4686 0.580566 18.498 4.61 18.498 9.58057C18.498 11.7027 17.7635 13.6534 16.5349 15.1921L21.1975 19.7002C21.5946 20.0841 21.6052 20.7172 21.2213 21.1143C20.8374 21.5113 20.2044 21.522 19.8073 21.1381L15.1217 16.6077C13.5811 17.8422 11.6258 18.5806 9.49805 18.5806C4.52748 18.5806 0.498047 14.5511 0.498047 9.58057Z" fill="#1A1A1A"/>
</svg>
