<svg width="16" height="14" viewBox="0 0 16 14" fill="none" xmlns="http://www.w3.org/2000/svg">
<path d="M8 0C3.5817 0 0 2.6778 0 5.98094C0 7.26534 0.541655 8.45508 1.46346 9.42963C2.57452 10.6043 3.25737 12.2018 2.93785 13.7868C2.9313 13.8192 2.93284 13.8141 2.93604 13.8471C2.94007 13.8887 2.95562 13.9458 3.00775 13.975C3.12186 14.0387 3.26184 13.9694 3.37748 13.9085C3.76258 13.7058 4.64096 13.1433 5.39038 12.6534C6.15908 12.1509 7.08164 11.9619 8 11.9619C12.4183 11.9619 16 9.28418 16 5.98094C16 2.6778 12.4183 0 8 0Z" fill="#1A1A1A"/>
</svg>
