<svg width="12" height="15" viewBox="0 0 12 15" fill="none" xmlns="http://www.w3.org/2000/svg">
<path d="M7.06042 0.435C6.92231 0.300074 6.75946 0.193115 6.58082 0.12C6.39598 0.0411951 6.19721 0.000386601 5.9963 0H5.84643C5.70742 0.00685157 5.57059 0.0372843 5.44176 0.0899999C5.41281 0.101297 5.38439 0.113828 5.35658 0.127548C5.21492 0.197441 5.08448 0.290051 4.96216 0.39L0.465906 4.68C0.177723 4.9545 0.0102967 5.33233 0.00045922 5.73038C-0.00937825 6.12842 0.139178 6.51408 0.413449 6.8025C0.68772 7.09092 1.06524 7.25849 1.46295 7.26833C1.86067 7.27818 2.246 7.1295 2.53418 6.855C3.2781 6.15593 4.49755 6.68338 4.49755 7.70422V13.5C4.49755 13.8978 4.65545 14.2794 4.93652 14.5607C5.21759 14.842 5.59881 15 5.9963 15C6.3938 15 6.77501 14.842 7.05608 14.5607C7.33715 14.2794 7.49505 13.8978 7.49505 13.5V7.861C7.49505 6.85145 8.71764 6.34809 9.42844 7.065C9.56777 7.20559 9.73354 7.31718 9.91617 7.39334C10.0988 7.46949 10.2947 7.5087 10.4926 7.5087C10.6904 7.5087 10.8863 7.46949 11.0689 7.39334C11.2516 7.31718 11.4173 7.20559 11.5567 7.065C11.6971 6.92556 11.8086 6.75965 11.8847 6.57687C11.9608 6.39408 12 6.19802 12 6C12 5.80198 11.9608 5.60592 11.8847 5.42313C11.8086 5.24035 11.6971 5.07444 11.5567 4.935L7.06042 0.435Z" fill="black"/>
</svg>
