<svg width="20" height="18" viewBox="0 0 20 18" fill="none" xmlns="http://www.w3.org/2000/svg">
<path d="M9.29011 2.43361L10 3.14911L10.7099 2.43361C12.6064 0.522129 15.6779 0.522129 17.5744 2.43361C19.4752 4.34947 19.4752 7.45891 17.5744 9.37477L10.0107 16.9982C10.0107 16.9982 10.0106 16.9983 10.0105 16.9983C10.009 16.9989 10.0053 17 10 17C9.99471 17 9.99102 16.9989 9.98951 16.9983C9.98941 16.9983 9.98932 16.9982 9.98925 16.9982L2.42562 9.37477C0.524795 7.45891 0.524795 4.34947 2.42562 2.43361C4.3221 0.522129 7.39363 0.522129 9.29011 2.43361Z" stroke="#1A1A1A" stroke-width="2"/>
</svg>
