<svg width="67" height="56" viewBox="0 0 67 56" fill="none" xmlns="http://www.w3.org/2000/svg">
<g opacity="0.6">
<path d="M8.7 23.6V32H7.104L2.916 26.9V32H0.996V23.6H2.604L6.78 28.7V23.6H8.7ZM17.1914 30.44V32H10.6874V23.6H17.0354V25.16H12.6194V26.984H16.5194V28.496H12.6194V30.44H17.1914ZM23.9482 32L21.9202 29.084L19.9282 32H17.6962L20.8042 27.728L17.8522 23.6H20.0602L21.9922 26.324L23.8882 23.6H25.9882L23.0602 27.656L26.1922 32H23.9482ZM28.5993 25.184H25.9113V23.6H33.2313V25.184H30.5433V32H28.5993V25.184Z" fill="#1A1A1A"/>
<path d="M64.5156 28L64.9668 28.4679V27.5321L64.5156 28ZM36.0644 1.4679L64.0644 28.4679L64.9668 27.5321L36.9668 0.532101L36.0644 1.4679ZM64.0644 27.5321L36.0644 54.5321L36.9668 55.4679L64.9668 28.4679L64.0644 27.5321Z" fill="#9A9A9A"/>
</g>
</svg>
