<svg width="67" height="56" viewBox="0 0 67 56" fill="none" xmlns="http://www.w3.org/2000/svg">
<g opacity="0.6">
<path d="M36.632 23.6C37.376 23.6 38.02 23.724 38.564 23.972C39.116 24.22 39.54 24.572 39.836 25.028C40.132 25.484 40.28 26.024 40.28 26.648C40.28 27.264 40.132 27.804 39.836 28.268C39.54 28.724 39.116 29.076 38.564 29.324C38.02 29.564 37.376 29.684 36.632 29.684H34.94V32H32.996V23.6H36.632ZM36.524 28.1C37.108 28.1 37.552 27.976 37.856 27.728C38.16 27.472 38.312 27.112 38.312 26.648C38.312 26.176 38.16 25.816 37.856 25.568C37.552 25.312 37.108 25.184 36.524 25.184H34.94V28.1H36.524ZM47.0199 32L45.3999 29.66H45.3039H43.6119V32H41.6679V23.6H45.3039C46.0479 23.6 46.6919 23.724 47.2359 23.972C47.7879 24.22 48.2119 24.572 48.5079 25.028C48.8039 25.484 48.9519 26.024 48.9519 26.648C48.9519 27.272 48.7999 27.812 48.4959 28.268C48.1999 28.716 47.7759 29.06 47.2239 29.3L49.1079 32H47.0199ZM46.9839 26.648C46.9839 26.176 46.8319 25.816 46.5279 25.568C46.2239 25.312 45.7799 25.184 45.1959 25.184H43.6119V28.112H45.1959C45.7799 28.112 46.2239 27.984 46.5279 27.728C46.8319 27.472 46.9839 27.112 46.9839 26.648ZM56.9961 30.44V32H50.4921V23.6H56.8401V25.16H52.4241V26.984H56.3241V28.496H52.4241V30.44H56.9961ZM66.5017 23.6L62.8657 32H60.9457L57.3217 23.6H59.4217L61.9777 29.6L64.5697 23.6H66.5017Z" fill="#1A1A1A"/>
<path d="M2 28L1.54881 28.4679V27.5321L2 28ZM30.4512 1.4679L2.45119 28.4679L1.54881 27.5321L29.5488 0.532101L30.4512 1.4679ZM2.45119 27.5321L30.4512 54.5321L29.5488 55.4679L1.54881 28.4679L2.45119 27.5321Z" fill="#9A9A9A"/>
</g>
</svg>
